<?xml version="1.0" standalone="no"?>
<!DOCTYPE svg PUBLIC "-//W3C//DTD SVG 20010904//EN"
 "http://www.w3.org/TR/2001/REC-SVG-20010904/DTD/svg10.dtd">
<svg version="1.0" xmlns="http://www.w3.org/2000/svg"
 width="228.000000pt" height="228.000000pt" viewBox="0 0 228.000000 228.000000"
 preserveAspectRatio="xMidYMid meet">
<metadata>
Created by potrace 1.11, written by Peter Selinger 2001-2013
</metadata>
<g transform="translate(0.000000,228.000000) scale(0.100000,-0.100000)"
fill="#000000" stroke="none">
<path d="M875 2121 c-371 -80 -627 -289 -700 -571 -38 -145 -16 -359 49 -488
98 -194 307 -342 582 -413 104 -27 141 -32 292 -36 l172 -6 0 602 c0 511 -2
602 -14 607 -8 3 -38 -14 -68 -38 -30 -24 -136 -106 -236 -183 -110 -85 -181
-147 -182 -157 0 -16 11 -18 90 -18 l90 0 0 -310 0 -311 -37 7 c-73 12 -189
55 -262 97 -280 159 -372 476 -211 726 244 377 882 431 1210 101 123 -123 177
-261 166 -425 -9 -151 -56 -283 -153 -428 -65 -98 -209 -240 -320 -315 l-93
-63 0 -133 c0 -73 -3 -154 -6 -180 -6 -42 -5 -46 15 -46 12 0 52 18 89 41 279
170 497 402 628 671 l44 92 0 333 0 334 -26 54 c-111 226 -368 403 -667 460
-109 21 -346 18 -452 -4z"/>
</g>
</svg>
